<svg xmlns="http://www.w3.org/2000/svg" viewBox="0 0 64 64">
  <defs>
    <linearGradient id="g" x1="0" x2="1" y1="0" y2="1">
      <stop stop-color="#ff8db4"/>
      <stop offset=".5" stop-color="#8d7cff"/>
      <stop offset="1" stop-color="#76e6d0"/>
    </linearGradient>
  </defs>
  <rect width="64" height="64" rx="18" fill="#f7f4ee"/>
  <path d="M17 14h12v24c0 8-5 13-13 13-3 0-6-.7-8-2.2l4-9c1 .7 2 1 3 1 1.5 0 2-.9 2-3V14Zm17 0h13c7 0 11 3.7 11 9.5 0 4.2-2 7.2-5.8 8.7L59 50H46l-5-15h-1v15H28V14h6Zm6 9v5h4c1.8 0 2.8-.8 2.8-2.5S45.8 23 44 23h-4Z" fill="url(#g)"/>
</svg>
